<?xml version="1.0" standalone="no"?><!DOCTYPE svg PUBLIC "-//W3C//DTD SVG 1.1//EN" "http://www.w3.org/Graphics/SVG/1.1/DTD/svg11.dtd"><svg t="1653980551069" class="icon" viewBox="0 0 1024 1024" version="1.1" xmlns="http://www.w3.org/2000/svg" p-id="9779" width="64" height="64" xmlns:xlink="http://www.w3.org/1999/xlink"><defs><style type="text/css">@font-face { font-family: feedback-iconfont; src: url("//at.alicdn.com/t/font_1031158_u69w8yhxdu.woff2?t=1630033759944") format("woff2"), url("//at.alicdn.com/t/font_1031158_u69w8yhxdu.woff?t=1630033759944") format("woff"), url("//at.alicdn.com/t/font_1031158_u69w8yhxdu.ttf?t=1630033759944") format("truetype"); }
</style></defs><path d="M928 161H699.2c-49.1 0-97.1 14.1-138.4 40.7L512 233l-48.8-31.3C422 175.1 373.9 161 324.8 161H96c-17.7 0-32 14.3-32 32v568c0 17.7 14.3 32 32 32h228.8c49.1 0 97.1 14.1 138.4 40.7l44.4 28.6c1.3 0.8 2.8 1.3 4.3 1.3s3-0.4 4.3-1.3l44.4-28.6C602 807.1 650.1 793 699.2 793H928c17.7 0 32-14.3 32-32V193c0-17.7-14.3-32-32-32zM404 553.5c0 4.1-3.2 7.5-7.1 7.5H211.1c-3.9 0-7.1-3.4-7.1-7.5v-45c0-4.1 3.2-7.5 7.1-7.5h185.7c3.9 0 7.1 3.4 7.1 7.5v45z m0-140c0 4.1-3.2 7.5-7.1 7.5H211.1c-3.9 0-7.1-3.4-7.1-7.5v-45c0-4.1 3.2-7.5 7.1-7.5h185.7c3.9 0 7.1 3.4 7.1 7.5v45z m416 140c0 4.1-3.2 7.5-7.1 7.5H627.1c-3.9 0-7.1-3.4-7.1-7.5v-45c0-4.1 3.2-7.5 7.1-7.5h185.7c3.9 0 7.1 3.4 7.1 7.5v45z m0-140c0 4.1-3.2 7.5-7.1 7.5H627.1c-3.9 0-7.1-3.4-7.1-7.5v-45c0-4.1 3.2-7.5 7.1-7.5h185.7c3.9 0 7.1 3.4 7.1 7.5v45z" p-id="9780" fill=""></path></svg>