<?xml version="1.0" standalone="no"?><!DOCTYPE svg PUBLIC "-//W3C//DTD SVG 1.1//EN" "http://www.w3.org/Graphics/SVG/1.1/DTD/svg11.dtd"><svg t="1654428406585" class="icon" viewBox="0 0 1024 1024" version="1.1" xmlns="http://www.w3.org/2000/svg" p-id="9215" xmlns:xlink="http://www.w3.org/1999/xlink" width="64" height="64"><defs><style type="text/css">@font-face { font-family: feedback-iconfont; src: url("//at.alicdn.com/t/font_1031158_u69w8yhxdu.woff2?t=1630033759944") format("woff2"), url("//at.alicdn.com/t/font_1031158_u69w8yhxdu.woff?t=1630033759944") format("woff"), url("//at.alicdn.com/t/font_1031158_u69w8yhxdu.ttf?t=1630033759944") format("truetype"); }
</style></defs><path d="M906.68 436.31v180.51c0 80.71-48.86 146.36-108.9 146.36H431.94v19.18c0 47.43 28.88 86.23 64.17 86.23h269.13l33.24 91.62 33.24-91.62h63.45c35.29 0 64.17-38.81 64.17-86.23V521c-0.01-42.17-22.83-77.33-52.66-84.69z" p-id="9216"></path><path d="M888.06 606.91V198.58c0-74.09-45.11-134.71-100.24-134.71H164.45c-55.13 0-100.24 60.62-100.24 134.71v408.33c0 74.09 45.11 134.71 100.24 134.71h99.11l51.92 143.13 51.92-143.13h420.42c55.18 0 100.24-60.62 100.24-134.71z m-632.5-169.46a53.35 53.35 0 1 1 53.35-53.35 53.35 53.35 0 0 1-53.35 53.35z m221.38 0a53.35 53.35 0 1 1 53.36-53.35 53.35 53.35 0 0 1-53.35 53.35z m221.39 0a53.35 53.35 0 1 1 53.35-53.35 53.35 53.35 0 0 1-53.35 53.35z" p-id="9217"></path></svg>