<?xml version="1.0" standalone="no"?><!DOCTYPE svg PUBLIC "-//W3C//DTD SVG 1.1//EN" "http://www.w3.org/Graphics/SVG/1.1/DTD/svg11.dtd"><svg t="1655903545040" class="icon" viewBox="0 0 1024 1024" version="1.1" xmlns="http://www.w3.org/2000/svg" p-id="6171" xmlns:xlink="http://www.w3.org/1999/xlink" width="48" height="48"><defs><style type="text/css">@font-face { font-family: feedback-iconfont; src: url("//at.alicdn.com/t/font_1031158_u69w8yhxdu.woff2?t=1630033759944") format("woff2"), url("//at.alicdn.com/t/font_1031158_u69w8yhxdu.woff?t=1630033759944") format("woff"), url("//at.alicdn.com/t/font_1031158_u69w8yhxdu.ttf?t=1630033759944") format("truetype"); }
</style></defs><path d="M974.557333 437.84774c-17.653709-14.126218-31.781733-28.254243-35.309223-38.851164-3.527491-14.111769 3.527491-35.309224 10.580665-56.490423 10.600534-31.781733 21.197455-60.035976 7.073043-88.272156-14.126218-24.726752-45.907951-31.781733-77.689684-38.836714-21.181199-3.525684-42.362399-7.071237-52.961126-17.651903-10.582472-10.600534-14.124412-31.797989-17.653709-52.979188-7.053175-31.781733-14.124412-63.547211-38.834908-77.673429-21.197455-14.126218-56.506679-3.527491-88.27035 7.054981-21.197455 7.071237-42.380461 14.126218-56.488617 10.598728-10.598728-3.527491-28.254243-21.181199-38.85297-35.307418C564.969254 24.710496 543.771799 0 512.006322 0c-31.781733 0-52.979188 24.710496-74.160388 49.437248-14.111769 17.653709-28.254243 31.779927-38.834908 35.307418-10.598728 3.527491-35.309224-3.527491-56.490423-10.598728-31.781733-10.582472-63.559854-17.653709-88.268544-7.054981-24.726752 17.653709-31.781733 49.435442-35.325479 81.215369-7.054981 21.183006-10.598728 42.380461-17.637454 52.962932-10.600534 7.056787-31.781733 10.600534-52.979188 17.655515-31.781733 3.527491-63.547211 10.582472-81.215369 35.309224-14.109962 28.236181-3.527491 56.488617 7.071237 88.272156 7.054981 21.181199 14.126218 42.380461 10.598728 56.490423-3.543746 10.598728-21.197455 28.254243-35.323673 38.851164-24.70869 21.183006-49.41738 42.364205-49.41738 74.144132s24.70869 52.964739 49.419186 74.144132c17.653709 14.126218 31.779927 28.254243 35.323673 38.85297 3.529297 14.126218-3.543746 35.309224-10.598728 56.488617-10.598728 31.783539-21.181199 60.035976-7.071236 88.272156 14.126218 24.726752 45.907951 31.781733 77.687878 38.854777 21.181199 3.527491 42.362399 7.053175 52.961126 17.653708 10.584278 10.596921 14.128024 31.779927 17.655515 52.961127 7.071237 31.781733 14.126218 63.56166 38.85297 77.689684 21.181199 14.111769 56.486811 3.511235 88.268544-7.069431 21.181199-7.056787 42.364205-14.126218 56.490423-10.60234 10.582472 3.545553 28.254243 21.184812 38.834908 35.327286 21.181199 24.710496 42.378654 49.419186 74.160388 49.419186 31.763671 0 52.962933-24.710496 74.142326-49.419186 14.128024-17.653709 28.254243-31.781733 38.85297-35.327286 10.582472-3.523878 35.291162 3.545553 56.488617 10.60234 31.763671 10.580666 63.545404 17.651903 88.27035 7.069431 24.710496-14.126218 31.781733-45.907951 38.834908-77.689684 3.529297-21.183006 7.071237-42.364205 17.653709-52.961127 10.598728-10.600534 31.781733-14.126218 52.961126-17.653708 31.781733-7.073043 63.56166-14.126218 77.689684-38.854777 14.124412-24.70869 3.527491-56.488617-7.073043-88.272156-7.053175-21.181199-14.109962-42.362399-10.580665-56.488617 3.527491-10.598728 21.183006-28.256049 35.309223-38.85297 24.70869-21.181199 49.433636-42.364205 49.433636-74.144132s-24.726752-52.961126-49.433636-74.144132z m-624.457954 155.09941c0 8.492709-5.649765 16.185276-13.75053 19.008351-2.026546 0.818204-4.459485 1.226404-6.484225 1.226404-6.057964 0-12.13399-3.251143-16.183469-8.510771a437460.489315 437460.489315 0 0 1-84.986696-112.505818v100.781834c0 10.925648-8.900908 20.234755-20.234755 20.234755-11.332041 0-20.234755-9.309107-20.234756-20.234755v-161.092351c0-8.492709 5.651571-16.185276 13.752337-19.026414 8.492709-2.824882 17.408067 0 22.667695 7.284368 28.335521 37.382731 56.669236 74.749206 84.986695 112.113875v-100.371829c0-10.927454 8.917164-19.828362 20.234755-19.828362 11.333847 0 20.234755 8.900908 20.234756 19.828362l-0.001807 161.092351z m141.673994-101.190033c11.317591 0 20.234755 8.900908 20.234755 20.234755 0 11.333847-8.917164 20.234755-20.234755 20.234756h-60.720522v40.46951h60.720522c11.317591 0 20.234755 8.917164 20.234755 20.251012 0 11.317591-8.917164 20.234755-20.234755 20.234755h-80.955278c-11.332041 0-20.234755-8.91897-20.234755-20.234755v-161.8943c0-11.333847 8.902714-20.251011 20.234755-20.251011h80.955278c11.317591 0 20.234755 8.917164 20.234755 20.251011 0 11.317591-8.917164 20.234755-20.234755 20.234756h-60.720522v40.469511h60.720522z m337.53371-55.446445c-19.956602 52.881654-39.92946 105.763308-59.902318 158.663024a19.750696 19.750696 0 0 1-18.620021 12.948581c-8.08451 0-15.773464-5.274077-18.618215-12.948581-13.75053-36.438093-27.517317-72.858124-41.267847-109.292605-13.768592 36.434481-27.535379 72.854512-41.284103 109.292605-5.669633 15.365265-31.570409 15.365265-37.236429 0-19.974664-52.899716-39.92946-105.779564-59.904124-158.663024-3.641281-10.123699 1.210148-21.459353 11.743853-25.508833 10.517449-4.033224 21.851296 1.224597 25.492577 11.742047 13.75053 36.434481 27.51551 72.854512 41.284103 109.272736 13.75053-36.418225 27.519123-72.838256 41.269653-109.272736 5.684082-15.385133 31.583052-15.385133 37.236429 0 13.76498 36.434481 27.533572 72.854512 41.282297 109.272736 13.768592-36.418225 27.535379-72.838256 41.285909-109.272736 3.641281-10.517449 15.383327-15.385133 25.508833-11.742047 10.521061 3.659343 15.778883 14.976934 11.729403 25.508833z" fill="" p-id="6172"></path></svg>