<?xml version="1.0" standalone="no"?><!DOCTYPE svg PUBLIC "-//W3C//DTD SVG 1.1//EN" "http://www.w3.org/Graphics/SVG/1.1/DTD/svg11.dtd"><svg t="1656642014615" class="icon" viewBox="0 0 1024 1024" version="1.1" xmlns="http://www.w3.org/2000/svg" p-id="8744" width="64" height="64" xmlns:xlink="http://www.w3.org/1999/xlink"><defs><style type="text/css">@font-face { font-family: feedback-iconfont; src: url("//at.alicdn.com/t/font_1031158_u69w8yhxdu.woff2?t=1630033759944") format("woff2"), url("//at.alicdn.com/t/font_1031158_u69w8yhxdu.woff?t=1630033759944") format("woff"), url("//at.alicdn.com/t/font_1031158_u69w8yhxdu.ttf?t=1630033759944") format("truetype"); }
</style></defs><path d="M318.537 159.748h66.836c10.465 0 17.86 5.302 22.465 14.092 4.465 8.372 4.186 17.024-0.697 25.117-5.163 8.65-12.977 12.976-23.303 12.976-34.046-0.14-68.231-0.14-102.278 0-14.511 0-28.325 2.93-40.883 10.326-25.953 15.488-39.627 38.51-40.046 68.65-0.419 27.21-0.14 54.418-0.14 81.627 0 5.721-0.697 11.163-3.907 16.326-6 9.907-18 14.79-29.441 11.72-11.163-3.07-19.116-13.255-19.116-24.836 0-35.721-0.419-71.581 0.14-107.302 0.418-36.279 15.906-65.301 44.65-87.208 16.186-12.28 34.604-19.116 54.697-21.21 1.535-0.278 3.349-0.278 5.163-0.278h65.86z m387.066 0h-66.837c-10.465 0-17.86 5.302-22.465 14.092-4.465 8.372-4.186 17.024 0.698 25.117 5.163 8.65 12.977 12.976 23.302 12.976 34.046-0.14 68.232-0.14 102.278 0 14.512 0 28.325 2.93 40.883 10.326 25.954 15.488 39.628 38.51 40.047 68.65 0.418 27.21 0.14 54.418 0.14 81.627 0 5.721 0.697 11.163 3.906 16.326 6 9.907 18 14.79 29.442 11.72 11.162-3.07 19.116-13.255 19.116-24.836 0-35.721 0.418-71.581-0.14-107.302-0.418-36.279-15.907-65.301-44.65-87.208-16.186-12.28-34.605-19.116-54.698-21.21-1.814-0.139-3.628-0.278-5.302-0.278h-65.72zM318.537 864.392h66.836c10.465 0 17.86-5.302 22.465-14.093 4.465-8.372 4.186-17.023-0.697-25.116-5.163-8.651-12.977-12.977-23.303-12.977-34.046 0.14-68.231 0.14-102.278 0-14.511 0-28.325-2.93-40.883-10.325-25.953-15.488-39.627-38.511-40.046-68.65-0.419-27.21-0.14-54.419-0.14-81.628 0-5.72-0.697-11.162-3.907-16.325-6-9.907-18-14.79-29.441-11.72-11.163 3.069-19.116 13.255-19.116 24.836 0 35.72-0.419 71.58 0.14 107.301 0.418 36.279 15.906 65.302 44.65 87.209 16.186 12.279 34.604 19.116 54.697 21.209 1.814 0.14 3.628 0.279 5.302 0.279h65.72z m387.066 0h-66.837c-10.465 0-17.86-5.302-22.465-14.093-4.465-8.372-4.186-17.023 0.698-25.116 5.163-8.651 12.977-12.977 23.302-12.977 34.046 0.14 68.232 0.14 102.278 0 14.512 0 28.325-2.93 40.883-10.325 25.954-15.488 39.628-38.511 40.047-68.65 0.418-27.21 0.14-54.419 0.14-81.628 0-5.72 0.697-11.162 3.906-16.325 6-9.907 18-14.79 29.442-11.72 11.162 3.069 19.116 13.255 19.116 24.836 0 35.72 0.418 71.58-0.14 107.301-0.418 36.279-15.907 65.302-44.65 87.209-16.186 12.279-34.605 19.116-54.698 21.209-1.814 0.14-3.628 0.279-5.302 0.279h-65.72zM296.63 650.766c4.186 10.465 12.698 16.605 22.744 16.605h383.02c6.837 0 12.837-2.791 17.72-8.372s9.907-12.419 9.907-20.372V394.443c0-21.21-8.79-31.814-18.837-36-10.046-4.325-20.65-1.116-27.628 8.093L550.023 543.883c-4.884 6.558-11.302 9.907-18.837 9.907s-13.953-3.349-18.837-9.907l-59.441-78.976c-5.024-6.558-11.442-9.906-18.977-9.906s-13.953 3.488-18.977 10.046L300.397 620.069c-6.697 8.79-7.953 20.232-3.767 30.697z" p-id="8745" fill=""></path></svg>