<?xml version="1.0" standalone="no"?><!DOCTYPE svg PUBLIC "-//W3C//DTD SVG 1.1//EN" "http://www.w3.org/Graphics/SVG/1.1/DTD/svg11.dtd"><svg t="1657114666078" class="icon" viewBox="0 0 1024 1024" version="1.1" xmlns="http://www.w3.org/2000/svg" p-id="5069" width="128" height="128" xmlns:xlink="http://www.w3.org/1999/xlink"><defs><style type="text/css">@font-face { font-family: feedback-iconfont; src: url("//at.alicdn.com/t/font_1031158_u69w8yhxdu.woff2?t=1630033759944") format("woff2"), url("//at.alicdn.com/t/font_1031158_u69w8yhxdu.woff?t=1630033759944") format("woff"), url("//at.alicdn.com/t/font_1031158_u69w8yhxdu.ttf?t=1630033759944") format("truetype"); }
</style></defs><path d="M756.053333 228.693333V131.413333l54.613334 97.28h27.306666V93.866667h-25.6V187.733333l-54.613333-93.866666h-29.013333v134.826666h27.306666z m216.746667-119.466666c-11.946667-13.653333-27.306667-18.773333-47.786667-18.773334-20.48 0-35.84 6.826667-47.786666 18.773334-11.946667 13.653333-17.066667 30.72-17.066667 52.906666s5.12 39.253333 17.066667 51.2c11.946667 11.946667 27.306667 18.773333 47.786666 18.773334 20.48 0 35.84-6.826667 47.786667-18.773334 11.946667-11.946667 17.066667-29.013333 17.066667-51.2s-5.12-39.253333-17.066667-52.906666z m-20.48 87.04c-6.826667 8.533333-15.36 11.946667-27.306667 11.946666-11.946667 0-20.48-3.413333-27.306666-11.946666-6.826667-8.533333-10.24-18.773333-10.24-34.133334 0-15.36 3.413333-27.306667 10.24-34.133333 6.826667-8.533333 17.066667-13.653333 27.306666-13.653333 11.946667 0 20.48 3.413333 27.306667 11.946666 6.826667 8.533333 10.24 20.48 10.24 34.133334 0 15.36-3.413333 27.306667-10.24 35.84z m0 0M153.6 629.76c0 15.36 13.653333 29.013333 34.133333 34.133333 20.48 6.826667 46.08 5.12 66.56-3.413333 20.48-8.533333 32.426667-22.186667 32.426667-37.546667 0-15.36-13.653333-29.013333-34.133333-34.133333-20.48-6.826667-46.08-5.12-66.56 3.413333C165.546667 600.746667 153.6 614.4 153.6 629.76z m587.093333 8.533333c0 15.36 13.653333 29.013333 34.133334 34.133334 20.48 6.826667 46.08 5.12 66.56-3.413334 20.48-8.533333 32.426667-23.893333 32.426666-37.546666 0-15.36-13.653333-29.013333-34.133333-34.133334-20.48-6.826667-46.08-5.12-66.56 3.413334-20.48 8.533333-32.426667 22.186667-32.426667 37.546666z m51.2 0M250.88 452.266667c0 34.133333 27.306667 63.146667 63.146667 63.146666 34.133333 0 61.44-27.306667 61.44-63.146666 0-34.133333-27.306667-61.44-61.44-61.44s-63.146667 27.306667-63.146667 61.44z m0 0M658.773333 452.266667c0 22.186667 11.946667 42.666667 30.72 54.613333 18.773333 11.946667 42.666667 11.946667 61.44 0s30.72-32.426667 30.72-54.613333c0-34.133333-27.306667-61.44-61.44-61.44s-61.44 27.306667-61.44 61.44z m0 0M436.906667 665.6c-11.946667 0-23.893333-10.24-25.6-22.186667 0-6.826667-6.826667-63.146667 29.013333-100.693333 13.653333-15.36 40.96-30.72 87.04-27.306667h1.706667c29.013333 5.12 85.333333 37.546667 88.746666 124.586667 0 13.653333-10.24 25.6-25.6 25.6-13.653333 0-25.6-10.24-25.6-25.6-1.706667-61.44-39.253333-73.386667-44.373333-75.093333-20.48-1.706667-34.133333 3.413333-44.373333 11.946666-15.36 17.066667-17.066667 47.786667-15.36 58.026667 1.706667 13.653333-8.533333 27.306667-22.186667 29.013333-1.706667 1.706667-1.706667 1.706667-3.413333 1.706667z" fill="" p-id="5070"></path><path d="M98.986667 803.84c-44.373333 0-68.266667-37.546667-73.386667-64.853333V168.96c1.706667-54.613333 44.373333-75.093333 73.386667-76.8h599.04v51.2h-597.333334c-8.533333 0-23.893333 5.12-23.893333 25.6v563.2c3.413333 10.24 10.24 23.893333 29.013333 20.48H172.373333v51.2H98.986667zM901.12 803.84l-1.706667-51.2h23.893334c8.533333 0 23.893333-5.12 23.893333-27.306667V278.186667h51.2v448.853333c-1.706667 54.613333-44.373333 75.093333-73.386667 76.8h-23.893333zM365.226667 752.64h337.92v51.2H365.226667z" fill="" p-id="5071"></path><path d="M467.626667 948.906667c-13.653333 0-23.893333-10.24-25.6-23.893334 0-6.826667 1.706667-13.653333 5.12-18.773333-1.706667-5.12-3.413333-13.653333-6.826667-18.773333-39.253333-78.506667-148.48-121.173333-150.186667-121.173334-58.026667-22.186667-93.866667-8.533333-104.106666-3.413333-6.826667 8.533333-6.826667 13.653333-6.826667 17.066667 5.12 10.24 35.84 20.48 59.733333 23.893333h3.413334l3.413333 1.706667c32.426667 13.653333 52.906667 32.426667 58.026667 58.026666 8.533333 39.253333-20.48 71.68-23.893334 75.093334-6.826667 10.24-23.893333 10.24-34.133333 0-10.24-10.24-10.24-25.6-1.706667-35.84 5.12-5.12 13.653333-18.773333 11.946667-29.013334-1.706667-6.826667-10.24-13.653333-23.893333-20.48-20.48-1.706667-80.213333-13.653333-97.28-54.613333-6.826667-15.36-8.533333-40.96 17.066666-71.68l1.706667-3.413333 3.413333-1.706667c1.706667-1.706667 59.733333-37.546667 153.6-1.706667 5.12 1.706667 129.706667 49.493333 179.2 148.48 13.653333 30.72 15.36 52.906667 6.826667 66.56-5.12 8.533333-13.653333 13.653333-23.893333 15.36-3.413333-1.706667-3.413333-1.706667-5.12-1.706666z m-1.706667-51.2zM605.866667 948.906667h-1.706667c-10.24-1.706667-18.773333-6.826667-23.893333-15.36-8.533333-13.653333-6.826667-35.84 5.12-64.853334 49.493333-100.693333 174.08-146.773333 179.2-148.48 93.866667-35.84 150.186667 1.706667 153.6 3.413334l3.413333 1.706666 3.413333 3.413334c25.6 32.426667 22.186667 56.32 17.066667 71.68-17.066667 39.253333-75.093333 51.2-95.573333 54.613333-15.36 8.533333-23.893333 17.066667-23.893334 25.6-1.706667 11.946667 10.24 23.893333 10.24 23.893333 10.24 10.24 10.24 25.6 0 35.84-10.24 10.24-25.6 10.24-35.84 0-3.413333-3.413333-30.72-30.72-23.893333-68.266666 3.413333-25.6 22.186667-47.786667 56.32-64.853334l3.413333-1.706666h5.12c23.893333-3.413333 54.613333-13.653333 59.733334-23.893334 1.706667-1.706667 0-8.533333-6.826667-17.066666-10.24-5.12-46.08-17.066667-104.106667 3.413333-1.706667 0-110.933333 42.666667-150.186666 122.88-1.706667 5.12-5.12 11.946667-5.12 17.066667 3.413333 5.12 6.826667 11.946667 5.12 18.773333-6.826667 11.946667-18.773333 22.186667-30.72 22.186667z m1.706666-51.2z" fill="" p-id="5072"></path><path d="M416.426667 397.653333c-3.413333 0-5.12 0-8.533334-1.706666L204.8 322.56c-13.653333-5.12-20.48-18.773333-15.36-32.426667s18.773333-20.48 32.426667-15.36l203.093333 73.386667c13.653333 5.12 20.48 18.773333 15.36 32.426667-3.413333 10.24-13.653333 17.066667-23.893333 17.066666z" fill="" p-id="5073"></path><path d="M602.453333 397.653333c-10.24 0-20.48-6.826667-23.893333-17.066666-5.12-13.653333 1.706667-27.306667 15.36-32.426667l203.093333-73.386667c13.653333-5.12 27.306667 1.706667 32.426667 15.36s-1.706667 27.306667-15.36 32.426667l-203.093333 73.386667c-3.413333 0-6.826667 1.706667-8.533334 1.706666z" fill="" p-id="5074"></path></svg>