<?xml version="1.0" standalone="no"?><!DOCTYPE svg PUBLIC "-//W3C//DTD SVG 1.1//EN" "http://www.w3.org/Graphics/SVG/1.1/DTD/svg11.dtd"><svg t="1657112707525" class="icon" viewBox="0 0 1024 1024" version="1.1" xmlns="http://www.w3.org/2000/svg" p-id="3654" width="128" height="128" xmlns:xlink="http://www.w3.org/1999/xlink"><defs><style type="text/css">@font-face { font-family: feedback-iconfont; src: url("//at.alicdn.com/t/font_1031158_u69w8yhxdu.woff2?t=1630033759944") format("woff2"), url("//at.alicdn.com/t/font_1031158_u69w8yhxdu.woff?t=1630033759944") format("woff"), url("//at.alicdn.com/t/font_1031158_u69w8yhxdu.ttf?t=1630033759944") format("truetype"); }
</style></defs><path d="M464.213333 926.72c-13.653333 0-23.893333-10.24-25.6-23.893333 0-6.826667 1.706667-11.946667 5.12-17.066667-1.706667-5.12-3.413333-11.946667-5.12-17.066667-35.84-73.386667-138.24-112.64-139.946666-112.64-52.906667-20.48-85.333333-8.533333-95.573334-3.413333-5.12 6.826667-6.826667 11.946667-5.12 13.653333 3.413333 8.533333 32.426667 18.773333 54.613334 20.48h3.413333l3.413333 1.706667c30.72 11.946667 49.493333 30.72 54.613334 54.613333 8.533333 37.546667-18.773333 68.266667-22.186667 71.68-10.24 10.24-25.6 10.24-35.84 1.706667-10.24-10.24-10.24-25.6-1.706667-35.84 3.413333-5.12 11.946667-17.066667 10.24-25.6-1.706667-5.12-8.533333-11.946667-20.48-17.066667-18.773333-1.706667-76.8-13.653333-92.16-51.2-6.826667-15.36-8.533333-39.253333 15.36-69.973333l3.413334-3.413333 3.413333-1.706667c1.706667-1.706667 56.32-35.84 145.066667-1.706667 5.12 1.706667 122.88 46.08 167.253333 138.24 11.946667 29.013333 13.653333 49.493333 5.12 63.146667-5.12 8.533333-13.653333 13.653333-23.893333 15.36h-3.413334zM592.213333 926.72h-1.706666c-10.24-1.706667-18.773333-6.826667-23.893334-15.36-8.533333-13.653333-6.826667-34.133333 5.12-63.146667 46.08-93.866667 163.84-138.24 168.96-139.946666 88.746667-34.133333 141.653333 1.706667 145.066667 3.413333l3.413333 1.706667 3.413334 3.413333c23.893333 30.72 22.186667 54.613333 15.36 69.973333-15.36 37.546667-71.68 49.493333-90.453334 51.2-13.653333 6.826667-20.48 15.36-22.186666 22.186667-1.706667 8.533333 6.826667 18.773333 8.533333 20.48 10.24 10.24 10.24 25.6 0 35.84-10.24 10.24-25.6 10.24-35.84 0-3.413333-3.413333-29.013333-29.013333-23.893333-64.853333 3.413333-25.6 22.186667-46.08 52.906666-61.44l3.413334-1.706667h5.12c23.893333-3.413333 51.2-13.653333 54.613333-20.48 0-1.706667 0-6.826667-5.12-13.653333-10.24-5.12-42.666667-15.36-95.573333 3.413333-1.706667 0-104.106667 39.253333-139.946667 114.346667l-5.12 15.36c3.413333 5.12 5.12 10.24 5.12 17.066666-3.413333 11.946667-15.36 22.186667-27.306667 22.186667z" fill="" p-id="3655"></path><path d="M687.786667 790.186667H366.933333v-51.2h322.56l-1.706666 51.2z" fill="" p-id="3656"></path><path d="M162.133333 790.186667H119.466667c-10.24 0-37.546667-1.706667-59.733334-25.6-17.066667-15.36-25.6-37.546667-25.6-59.733334V182.613333c0-47.786667 39.253333-85.333333 85.333334-85.333333h785.066666c47.786667 0 85.333333 39.253333 85.333334 85.333333v522.24c0 47.786667-39.253333 85.333333-85.333334 85.333334v-51.2c18.773333 0 34.133333-15.36 34.133334-34.133334V182.613333c0-18.773333-15.36-34.133333-34.133334-34.133333H119.466667c-18.773333 0-34.133333 15.36-34.133334 34.133333v522.24c0 8.533333 3.413333 17.066667 10.24 23.893334 10.24 10.24 22.186667 10.24 23.893334 10.24H172.373333v22.186666l5.12 29.013334h-15.36z" fill="" p-id="3657"></path><path d="M457.386667 343.04c-68.266667 0-133.12-59.733333-134.826667-61.44-10.24-10.24-10.24-25.6-1.706667-35.84 10.24-10.24 25.6-10.24 35.84-1.706667 17.066667 15.36 68.266667 52.906667 107.52 47.786667 13.653333-1.706667 27.306667 8.533333 29.013334 22.186667 1.706667 13.653333-8.533333 27.306667-22.186667 29.013333h-13.653333zM570.026667 343.04h-13.653334c-13.653333-1.706667-23.893333-15.36-22.186666-29.013333 1.706667-13.653333 15.36-23.893333 29.013333-22.186667 40.96 5.12 92.16-32.426667 107.52-47.786667 10.24-10.24 27.306667-8.533333 35.84 1.706667 10.24 10.24 8.533333 27.306667-1.706667 35.84-3.413333 1.706667-68.266667 61.44-134.826666 61.44zM348.16 392.533333h-187.733333c-13.653333 0-23.893333-11.946667-23.893334-25.6S146.773333 341.333333 162.133333 341.333333h187.733334c13.653333 0 25.6 11.946667 25.6 25.6s-11.946667 25.6-27.306667 25.6z" fill="" p-id="3658"></path><path d="M191.146667 754.346667c-8.533333 0-18.773333-5.12-22.186667-13.653334-6.826667-11.946667-1.706667-27.306667 10.24-34.133333 5.12-1.706667 3.413333-23.893333-1.706667-40.96-34.133333-63.146667-17.066667-163.84-15.36-174.08l1.706667-3.413333c18.773333-51.2-5.12-104.106667-5.12-104.106667-5.12-13.653333 0-27.306667 11.946667-34.133333 11.946667-5.12 27.306667 0 34.133333 11.946666 1.706667 3.413333 32.426667 69.973333 8.533333 139.946667-5.12 27.306667-10.24 102.4 11.946667 141.653333l1.706667 5.12c11.946667 35.84 13.653333 85.333333-22.186667 105.813334-5.12-1.706667-8.533333 0-13.653333 0zM332.8 759.466667c-3.413333 0-5.12 0-8.533333-1.706667-13.653333-5.12-20.48-18.773333-17.066667-32.426667 11.946667-35.84 3.413333-64.853333 3.413333-64.853333-35.84-95.573333-11.946667-155.306667-5.12-170.666667 18.773333-63.146667 3.413333-110.933333 1.706667-110.933333-5.12-13.653333 1.706667-27.306667 15.36-32.426667 13.653333-5.12 27.306667 1.706667 32.426667 15.36 1.706667 3.413333 23.893333 64.853333-1.706667 146.773334l-1.706667 5.12c0 1.706667-23.893333 47.786667 6.826667 131.413333 1.706667 3.413333 13.653333 46.08-1.706667 97.28-1.706667 10.24-11.946667 17.066667-23.893333 17.066667z m-1.706667-257.706667z" fill="" p-id="3659"></path><path d="M894.293333 392.533333h-187.733333c-13.653333 0-25.6-11.946667-25.6-25.6s11.946667-25.6 25.6-25.6h187.733333c13.653333 0 25.6 11.946667 25.6 25.6s-10.24 25.6-25.6 25.6z" fill="" p-id="3660"></path><path d="M868.693333 754.346667c-3.413333 0-8.533333-1.706667-11.946666-3.413334-37.546667-18.773333-35.84-68.266667-22.186667-105.813333l1.706667-5.12c22.186667-39.253333 15.36-112.64 11.946666-139.946667-23.893333-69.973333 6.826667-138.24 8.533334-139.946666 5.12-13.653333 20.48-18.773333 34.133333-11.946667 11.946667 5.12 18.773333 20.48 11.946667 34.133333 0 1.706667-23.893333 52.906667-5.12 104.106667l1.706666 3.413333c1.706667 11.946667 18.773333 112.64-15.36 174.08-5.12 18.773333-5.12 39.253333-1.706666 40.96 11.946667 6.826667 17.066667 22.186667 10.24 34.133334-5.12 10.24-13.653333 15.36-23.893334 15.36zM727.04 759.466667c-10.24 0-20.48-6.826667-23.893333-17.066667-17.066667-51.2-3.413333-93.866667-3.413334-95.573333 32.426667-85.333333 8.533333-131.413333 6.826667-133.12l-1.706667-5.12c-25.6-81.92-3.413333-143.36-1.706666-146.773334 5.12-13.653333 18.773333-20.48 32.426666-15.36 13.653333 5.12 20.48 18.773333 15.36 32.426667 0 1.706667-17.066667 49.493333 1.706667 110.933333 6.826667 15.36 30.72 75.093333-5.12 172.373334 0 0-8.533333 29.013333 3.413333 63.146666 5.12 13.653333-3.413333 27.306667-17.066666 32.426667-1.706667 1.706667-3.413333 1.706667-6.826667 1.706667z" fill="" p-id="3661"></path><path d="M602.453333 667.306667c-3.413333 0-6.826667 0-10.24-1.706667l-83.626666-37.546667-78.506667 35.84c-11.946667 5.12-27.306667 0-34.133333-11.946666-6.826667-13.653333 0-27.306667 11.946666-34.133334l98.986667-46.08 104.106667 46.08c13.653333 5.12 18.773333 20.48 13.653333 34.133334-1.706667 8.533333-11.946667 15.36-22.186667 15.36z" fill="" p-id="3662"></path></svg>